# xmcd
#
# Track frame offsets: 
#        150
#        13261
#        29966
#        47110
#        63953
#        79968
#        95511
#        110610
#        124184
#        141093
#        156081
#        170325
#
# Disc length: 2488 seconds
#
# Revision: 1
# Processed by: cddbd v1.5.2PL0 Copyright (c) Steve Scherf et al.
# Submitted via: ExactAudioCopy v1.0b1
#
DISCID=a809b60c
DTITLE=Emmylou Harris and Rodney Crowell - Old Yellow Moon
DYEAR=2013
DGENRE=Folk-Rock
TTITLE0=Hanging Up My Heart
TTITLE1=Invitation to the Blues
TTITLE2=Spanish Dancer
TTITLE3=Open Season On My Heart
TTITLE4=Chase the Feeling
TTITLE5=Black Caffeine
TTITLE6=Dreaming My Dreams
TTITLE7=Bluebird Wine
TTITLE8=Back When We Were Beautiful
TTITLE9=Here We Are
TTITLE10=Bull Rider
TTITLE11=Old Yellow Moon
EXTD=
EXTT0=
EXTT1=
EXTT2=
EXTT3=
EXTT4=
EXTT5=
EXTT6=
EXTT7=
EXTT8=
EXTT9=
EXTT10=
EXTT11=
PLAYORDER=
